<svg xmlns="http://www.w3.org/2000/svg" width="480" height="320" viewBox="0 0 480 320" fill="none">
  <!-- big thin 404 behind -->
  <text x="240" y="210" text-anchor="middle" font-family="Inter, ui-sans-serif, system-ui, sans-serif" font-size="180" font-weight="200" fill="#EDE9FE">404</text>
  <!-- column -->
  <rect x="170" y="30" width="140" height="120" rx="12" stroke="#7C3AED" stroke-width="2" stroke-dasharray="7 7" opacity=".5" fill="none"/>
  <rect x="184" y="44" width="60" height="10" rx="5" fill="#EDE9FE"/>
  <!-- falling card with motion lines -->
  <g stroke="#7C3AED" stroke-width="2" stroke-linecap="round" opacity=".45">
    <line x1="212" y1="150" x2="206" y2="186"/>
    <line x1="240" y1="152" x2="240" y2="196"/>
    <line x1="268" y1="150" x2="274" y2="186"/>
  </g>
  <g transform="rotate(9 240 240)">
    <rect x="176" y="204" width="128" height="70" rx="10" fill="#fff" stroke="#7C3AED" stroke-width="2.5"/>
    <rect x="190" y="220" width="70" height="9" rx="4.5" fill="#7C3AED" opacity=".35"/>
    <rect x="190" y="236" width="92" height="8" rx="4" fill="#EDE9FE"/>
    <rect x="190" y="252" width="22" height="10" rx="5" fill="#25D366" opacity=".5"/>
  </g>
  <!-- sparkles -->
  <g stroke="#7C3AED" stroke-width="2" stroke-linecap="round">
    <path d="M110 90v12M104 96h12" opacity=".6"/>
    <path d="M380 120v10M375 125h10" opacity=".4"/>
  </g>
</svg>
